<svg width="77" height="77" viewBox="0 0 77 77" fill="none" xmlns="http://www.w3.org/2000/svg">
<g clip-path="url(#clip0_194_501)">
<path d="M44.7219 14.6129C47.5344 18.7002 49.131 23.5009 49.3266 28.4585C49.5222 33.416 48.3088 38.3276 45.827 42.6237C43.3473 46.9211 39.7005 50.4277 35.3093 52.7371C30.9181 55.0465 25.9623 56.0641 21.0164 55.672C23.6812 58.3028 26.9137 60.2878 30.4654 61.4743C34.0172 62.6609 37.7936 63.0175 41.5047 62.5168C45.2157 62.0161 48.7626 60.6713 51.8729 58.5859C54.9831 56.5004 57.5739 53.7298 59.4462 50.4868C61.3186 47.2438 62.4226 43.6148 62.6736 39.8785C62.9245 36.1422 62.3156 32.3982 60.8937 28.9339C59.4718 25.4697 57.2748 22.3775 54.4713 19.8949C51.6679 17.4123 48.3326 15.6054 44.7219 14.6129ZM39.0012 10.2553C46.4262 10.4546 53.4679 13.5952 58.5772 18.9864C63.6866 24.3775 66.445 31.5775 66.2458 39.0024C66.0465 46.4274 62.9058 53.4691 57.5147 58.5784C52.1236 63.6878 44.9236 66.4462 37.4986 66.2469C30.0726 66.0476 23.03 62.9065 17.9199 57.5146C12.8099 52.1227 10.0511 44.9217 10.2504 37.4957C10.4498 30.0697 13.5909 23.027 18.9828 17.917C24.3747 12.807 31.5757 10.0482 39.0017 10.2475L39.0012 10.2553Z" fill="#34A853" fill-opacity="0.45"/>
</g>
<defs>
<clipPath id="clip0_194_501">
<rect width="56" height="56" fill="white" transform="translate(28) rotate(30)"/>
</clipPath>
</defs>
</svg>
