<svg width="98" height="98" viewBox="0 0 98 98" fill="none" xmlns="http://www.w3.org/2000/svg">
<g clip-path="url(#clip0_194_469)">
<path d="M74.3599 14.7568L69.2593 13.8804L65.95 9.90135C65.7466 9.65459 65.4766 9.47155 65.172 9.37405C64.8675 9.27656 64.5414 9.26872 64.2325 9.35148C63.9236 9.43424 63.6451 9.6041 63.4301 9.8408C63.2151 10.0775 63.0728 10.3711 63.02 10.6864L62.1758 15.7784L58.1968 19.0877C57.95 19.2911 57.767 19.5611 57.6695 19.8657C57.572 20.1702 57.5641 20.4964 57.6469 20.8052C57.7297 21.1141 57.8995 21.3926 58.1362 21.6076C58.3729 21.8226 58.6665 21.9649 58.9818 22.0177L64.0738 22.8619L67.3831 26.841C67.5865 27.0877 67.8566 27.2708 68.1611 27.3683C68.4656 27.4658 68.7918 27.4736 69.1006 27.3908C69.4095 27.3081 69.688 27.1382 69.903 26.9015C70.118 26.6648 70.2604 26.3713 70.3131 26.0559L71.1573 20.9639L75.1364 17.6546C76.2454 16.7708 75.7623 14.9677 74.3599 14.7568Z" fill="#34A853" fill-opacity="0.45"/>
<path d="M41.2714 58.8225C43.4941 58.2269 44.8132 55.9422 44.2176 53.7194C43.622 51.4967 41.3373 50.1776 39.1145 50.7731C36.8918 51.3687 35.5727 53.6535 36.1683 55.8763C36.7638 58.099 39.0486 59.4181 41.2714 58.8225Z" fill="#34A853" fill-opacity="0.45"/>
<path d="M60.5897 53.646C62.8125 53.0504 64.1316 50.7657 63.536 48.5429C62.9404 46.3201 60.6557 45.001 58.4329 45.5966C56.2101 46.1922 54.891 48.477 55.4866 50.6997C56.0822 52.9225 58.3669 54.2416 60.5897 53.646Z" fill="#34A853" fill-opacity="0.45"/>
<path d="M70.3763 32.2162C67.8649 32.8891 65.182 32.0206 63.507 30.0193L61.4104 27.4752L58.1589 26.9316C56.8993 26.7162 55.7276 26.1451 54.7819 25.2857C53.8363 24.4263 53.1561 23.3143 52.8216 22.081C52.2522 19.956 52.8293 17.7308 54.2166 16.0822C49.7496 15.3812 45.0302 15.5414 40.3616 16.7924C22.5886 21.5546 12.0291 39.8442 16.7914 57.6172C21.5536 75.3902 39.8432 85.9497 57.6162 81.1874C75.3892 76.4252 85.9487 58.1356 81.1864 40.3626C79.9355 35.694 77.7146 31.5268 74.8739 28.0088C74.1399 30.0345 72.5013 31.6468 70.3763 32.2162ZM55.8907 74.7479C41.6916 78.5526 27.0355 70.0909 23.2309 55.8917C23.1877 55.7308 23.1768 55.5611 23.1101 55.441C30.636 50.0425 35.6312 41.7677 36.8033 32.6193C40.818 35.5229 45.4295 37.495 50.3023 38.3921C55.175 39.2892 60.1865 39.0888 64.9721 37.8054C67.3869 37.1583 69.6275 36.2474 71.7519 35.1605C73.0406 37.2654 74.074 39.5767 74.7469 42.0881C78.5516 56.2872 70.0898 70.9433 55.8907 74.7479Z" fill="#34A853" fill-opacity="0.45"/>
</g>
<defs>
<clipPath id="clip0_194_469">
<rect width="80" height="80" fill="white" transform="translate(0 20.7056) rotate(-15)"/>
</clipPath>
</defs>
</svg>
