<svg width="107" height="107" viewBox="0 0 107 107" fill="none" xmlns="http://www.w3.org/2000/svg">
<g clip-path="url(#clip0_194_529)">
<path d="M94.0845 45.8801L91.2058 35.1363C90.9826 34.3039 90.4379 33.5943 89.6916 33.1634C88.9453 32.7325 88.0584 32.6156 87.2259 32.8386L66.8926 38.2869C66.0601 38.5098 65.3502 39.0543 64.9191 39.8006L60.9866 46.6119C60.5556 47.3584 60.4388 48.2455 60.6619 49.0781C60.885 49.9107 61.4297 50.6205 62.1762 51.0515L68.9875 54.984C69.734 55.4148 70.621 55.5314 71.4535 55.3082L91.7868 49.8599C92.6192 49.6368 93.3289 49.0921 93.7597 48.3458C94.1906 47.5995 94.3075 46.7126 94.0845 45.8801ZM71.0751 48.6837L68.2408 47.0473L69.8755 44.2159L85.7692 39.9572L86.9659 44.4234L71.0751 48.6837ZM74.6014 61.8354C73.8549 61.4044 72.9678 61.2876 72.1352 61.5107C71.3027 61.7338 70.5928 62.2785 70.1618 63.025L66.2748 69.7575L64.5142 63.1869C63.8931 60.8746 62.3796 58.9035 60.3061 57.7063C58.2326 56.5092 55.7688 56.1841 53.4557 56.8022L50.3585 57.6298L47.4012 46.593C46.7805 44.2839 45.2688 42.3155 43.1981 41.12C41.1274 39.9245 38.6669 39.5995 36.3568 40.2165L29.7729 41.9806L38.8827 26.2021C39.3136 25.4556 40.0235 24.9109 40.8561 24.6878C41.6887 24.4647 42.5758 24.5815 43.3223 25.0125L60.2097 34.7625C60.9562 35.1935 61.8433 35.3102 62.6759 35.0872C63.5085 34.8641 64.2184 34.3194 64.6493 33.5729C65.0803 32.8264 65.1971 31.9393 64.974 31.1067C64.7509 30.2742 64.2062 29.5643 63.4597 29.1333L46.5723 19.3833C44.3322 18.093 41.6718 17.7441 39.1748 18.4132C36.6778 19.0822 34.5483 20.7146 33.2535 22.9521L13.7535 56.7271C12.4632 58.9671 12.1143 61.6275 12.7834 64.1245C13.4524 66.6215 15.0848 68.751 17.3222 70.0458L51.0972 89.5458C53.3373 90.8361 55.9977 91.185 58.4947 90.5159C60.9917 89.8469 63.1212 88.2145 64.416 85.9771L75.791 66.275C76.222 65.5285 76.3388 64.6414 76.1157 63.8088C75.8926 62.9762 75.3479 62.2664 74.6014 61.8354ZM20.5722 64.4166C19.8258 63.9857 19.2811 63.2758 19.058 62.4432C18.8349 61.6106 18.9517 60.7235 19.3827 59.9771L25.1774 49.9402L38.0389 46.494C38.6832 46.3425 39.361 46.4424 39.9342 46.7733C40.5074 47.1042 40.9328 47.6413 41.1237 48.275L44.8939 62.3368C44.903 62.3796 44.8919 62.4182 44.9014 62.4538L49.979 81.3946L20.5722 64.4166ZM58.7868 82.7271C58.4596 83.2617 57.9803 83.6867 57.4104 83.9476L52.0406 63.9073L55.1394 63.077C55.787 62.9054 56.4761 62.9971 57.0562 63.3321C57.6363 63.667 58.0603 64.2179 58.2355 64.8645L61.6793 77.7171L58.7868 82.7271Z" fill="#34A853" fill-opacity="0.45"/>
</g>
<defs>
<clipPath id="clip0_194_529">
<rect width="78" height="78" fill="white" transform="translate(39) rotate(30)"/>
</clipPath>
</defs>
</svg>
