<svg width="102" height="102" viewBox="0 0 102 102" fill="none" xmlns="http://www.w3.org/2000/svg">
<g clip-path="url(#clip0_194_514)">
<path d="M36.4193 42.156L21.387 46.1838C20.5011 46.4212 19.5571 46.297 18.7628 45.8384C17.9685 45.3798 17.3889 44.6244 17.1515 43.7384L13.1236 28.7062C12.8862 27.8203 13.0105 26.8763 13.4691 26.082C13.9277 25.2876 14.6831 24.708 15.569 24.4706C16.455 24.2332 17.3989 24.3575 18.1933 24.8161C18.9876 25.2747 19.5672 26.0301 19.8046 26.9161L22.9374 38.6078L34.6291 35.475C35.5151 35.2376 36.459 35.3619 37.2533 35.8205C38.0477 36.2791 38.6273 37.0344 38.8647 37.9204C39.1021 38.8064 38.9778 39.7503 38.5192 40.5446C38.0606 41.339 37.3052 41.9186 36.4193 42.156Z" fill="#34A853" fill-opacity="0.45"/>
<path d="M81.7865 46.1116C80.9005 46.349 79.9566 46.2247 79.1622 45.7661C78.3679 45.3075 77.7883 44.5522 77.5509 43.6662C75.9777 37.7847 72.5072 32.5869 67.678 28.8794C62.8488 25.1719 56.9309 23.1619 50.8427 23.1615C44.7544 23.161 38.8362 25.1701 34.0064 28.8769C29.1767 32.5837 25.7054 37.781 24.1313 43.6622C23.8929 44.5479 23.3124 45.3027 22.5175 45.7604C21.7227 46.2181 20.7785 46.3414 19.8928 46.103C19.0071 45.8645 18.2523 45.2841 17.7946 44.4892C17.3369 43.6943 17.2136 42.7501 17.4521 41.8644C19.4216 34.5134 23.7621 28.0179 29.8001 23.3855C35.8381 18.7531 43.2361 16.2429 50.8464 16.2442C58.4567 16.2455 65.8539 18.7584 71.8903 23.3928C77.9267 28.0273 82.2649 34.5244 84.2319 41.876C84.4693 42.762 84.345 43.706 83.8864 44.5003C83.4278 45.2946 82.6724 45.8742 81.7865 46.1116ZM86.0842 77.183C85.1982 77.4204 84.2542 77.2961 83.4599 76.8375C82.6656 76.3789 82.086 75.6236 81.8486 74.7376L78.7158 63.0459L67.0241 66.1787C66.1381 66.4161 65.1942 66.2918 64.3998 65.8332C63.6055 65.3746 63.0259 64.6192 62.7885 63.7333C62.5511 62.8473 62.6754 61.9033 63.134 61.109C63.5926 60.3147 64.348 59.7351 65.2339 59.4977L80.2661 55.4698C81.1521 55.2324 82.0961 55.3567 82.8904 55.8153C83.6847 56.2739 84.2643 57.0293 84.5017 57.9152L88.5296 72.9475C88.767 73.8334 88.6427 74.7774 88.1841 75.5717C87.7255 76.366 86.9701 76.9456 86.0842 77.183Z" fill="#34A853" fill-opacity="0.45"/>
<path d="M59.7782 84.2319C50.919 86.5962 41.4837 85.3492 33.5428 80.7646C25.602 76.18 19.8044 68.6322 17.4224 59.7777C17.185 58.8918 17.3093 57.9478 17.7679 57.1535C18.2265 56.3592 18.9819 55.7796 19.8678 55.5422C20.7538 55.3048 21.6978 55.4291 22.4921 55.8877C23.2864 56.3463 23.866 57.1016 24.1034 57.9876C25.6766 63.8691 29.1471 69.0669 33.9763 72.7744C38.8055 76.4819 44.7234 78.4919 50.8117 78.4923C56.8999 78.4928 62.8181 76.4837 67.6479 72.7769C72.4777 69.0701 75.9489 63.8728 77.523 57.9916C77.6411 57.553 77.8443 57.142 78.1212 56.782C78.3981 56.422 78.7432 56.12 79.1368 55.8934C79.5304 55.6667 79.9647 55.5198 80.4151 55.4611C80.8654 55.4023 81.323 55.4328 81.7615 55.5508C82.2001 55.6689 82.6111 55.8722 82.9711 56.1491C83.3311 56.4259 83.6331 56.771 83.8597 57.1646C84.0864 57.5582 84.2333 57.9926 84.2921 58.4429C84.3508 58.8933 84.3203 59.3508 84.2023 59.7894C82.6223 65.6427 79.5358 70.9797 75.2504 75.2683C70.965 79.557 65.6303 82.6475 59.7782 84.2319Z" fill="#34A853" fill-opacity="0.45"/>
</g>
<defs>
<clipPath id="clip0_194_514">
<rect width="83" height="83" fill="white" transform="translate(0 21.4819) rotate(-15)"/>
</clipPath>
</defs>
</svg>
