<svg width="32" height="33" viewBox="0 0 32 33" fill="none" xmlns="http://www.w3.org/2000/svg">
<path d="M4 13.3667V10.5333L10.0333 4.5H12.8667L4 13.3667ZM4 6.83333V4.5H6.33333L4 6.83333ZM21.5667 9.06667C21.3444 8.82222 21.1058 8.58356 20.8507 8.35067C20.5956 8.11778 20.3342 7.912 20.0667 7.73333L23.3 4.5H26.1333L21.5667 9.06667ZM7.33333 20.4667L9.9 17.9C10.0556 18.1444 10.2169 18.3667 10.384 18.5667C10.5511 18.7667 10.7342 18.9556 10.9333 19.1333C10.3111 19.2889 9.68356 19.4836 9.05067 19.7173C8.41778 19.9511 7.84533 20.2009 7.33333 20.4667ZM23.3333 13.9V13.8333C23.3333 13.4111 23.3 13 23.2333 12.6C23.1667 12.2 23.0667 11.8111 22.9333 11.4333L28 6.36667V9.23333L23.3333 13.9ZM14.5333 6.63333L16.7 4.5H19.5333L17.4 6.63333C17.1556 6.58889 16.9222 6.55556 16.7 6.53333C16.4778 6.51111 16.2444 6.5 16 6.5C15.7556 6.5 15.5111 6.51111 15.2667 6.53333C15.0222 6.55556 14.7778 6.58889 14.5333 6.63333ZM4 20V17.1667L8.8 12.3667C8.75556 12.6111 8.72222 12.8556 8.7 13.1C8.67778 13.3444 8.66667 13.5889 8.66667 13.8333C8.66667 14.0778 8.67778 14.3111 8.7 14.5333C8.72222 14.7556 8.75556 14.9778 8.8 15.2L4 20ZM27.6333 22.7667C27.4556 22.5 27.2502 22.2444 27.0173 22C26.7844 21.7556 26.5342 21.5333 26.2667 21.3333L28 19.6V22.4333L27.6333 22.7667ZM23.7667 20.0333C23.6111 19.9667 23.4556 19.9053 23.3 19.8493C23.1444 19.7933 22.9889 19.7436 22.8333 19.7C22.6333 19.6333 22.4391 19.5667 22.2507 19.5C22.0622 19.4333 21.8676 19.3778 21.6667 19.3333L28 12.9667V15.8333L23.7667 20.0333ZM16 19.1667C14.5333 19.1667 13.2778 18.6444 12.2333 17.6C11.1889 16.5556 10.6667 15.3 10.6667 13.8333C10.6667 12.3667 11.1889 11.1111 12.2333 10.0667C13.2778 9.02222 14.5333 8.5 16 8.5C17.4667 8.5 18.7222 9.02222 19.7667 10.0667C20.8111 11.1111 21.3333 12.3667 21.3333 13.8333C21.3333 15.3 20.8111 16.5556 19.7667 17.6C18.7222 18.6444 17.4667 19.1667 16 19.1667ZM5.33333 28.5V26.1333C5.33333 25.3778 5.52222 24.6778 5.9 24.0333C6.27778 23.3889 6.8 22.9 7.46667 22.5667C8.6 21.9889 9.88356 21.5 11.3173 21.1C12.7511 20.7 14.312 20.5 16 20.5C17.688 20.5 19.2493 20.7 20.684 21.1C22.1187 21.5 23.4018 21.9889 24.5333 22.5667C25.2 22.9 25.7222 23.3889 26.1 24.0333C26.4778 24.6778 26.6667 25.3778 26.6667 26.1333V28.5H5.33333Z" fill="#34A853"/>
</svg>
