<svg width="32" height="33" viewBox="0 0 32 33" fill="none" xmlns="http://www.w3.org/2000/svg">
<path d="M7.7831 14.0787C8.03643 14.732 8.63643 15.1587 9.3431 15.1587C10.0498 15.1587 10.6631 14.732 10.9031 14.0787L11.8498 11.5187C11.8764 11.4253 11.9431 11.3587 12.0364 11.332L14.5964 10.3853C15.2498 10.132 15.6764 9.532 15.6764 8.82534C15.6764 8.11867 15.2498 7.50534 14.5964 7.26534L12.0364 6.31867C11.9938 6.30262 11.9551 6.27767 11.923 6.24548C11.8908 6.21329 11.8658 6.17461 11.8498 6.132L10.9031 3.572C10.6498 2.91867 10.0498 2.492 9.3431 2.492C8.63643 2.492 8.0231 2.91867 7.7831 3.572L6.83643 6.132C6.80977 6.22534 6.7431 6.292 6.64977 6.31867L4.08977 7.26534C3.43643 7.51867 3.00977 8.11867 3.00977 8.82534C3.00977 9.532 3.43643 10.1453 4.08977 10.3853L6.64977 11.332C6.7431 11.372 6.80977 11.4387 6.83643 11.5187L7.7831 14.0787ZM7.3431 9.452L5.64977 8.82534L7.3431 8.19867C7.9831 7.95867 8.47643 7.46534 8.71643 6.82534L9.3431 5.132L9.96977 6.82534C10.2098 7.452 10.7164 7.95867 11.3431 8.18534L13.0364 8.81201L11.3431 9.43867C10.7031 9.67867 10.2098 10.172 9.96977 10.812L9.3431 12.5053L8.71643 10.812C8.47643 10.1853 7.96977 9.67867 7.3431 9.452ZM7.00977 30.1587C7.00977 30.7053 7.4631 31.1587 8.00977 31.1587H10.0098L9.99643 31.172C11.6898 31.172 12.6231 31.172 13.5298 30.7987C14.4364 30.4253 15.0898 29.772 16.2898 28.572L27.1564 17.7053L27.2178 17.644C27.9391 16.9107 28.3511 16.492 28.6098 15.9733C29.1164 14.96 29.1164 13.76 28.6098 12.7467C28.3671 12.2227 27.9658 11.8213 27.2524 11.1093L27.1564 11.0133L27.0938 10.952C26.3604 10.2293 25.9418 9.81867 25.4231 9.56C24.4098 9.05334 23.2098 9.05334 22.1964 9.56C21.6724 9.80267 21.2711 10.204 20.5591 10.916L20.4631 11.0133L18.4898 12.9867L9.60977 21.8667C8.4231 23.0533 7.75643 23.72 7.3831 24.6267C7.00977 25.5333 7.00977 26.4667 7.00977 28.16V30.1587ZM9.0231 29.1587V28.172C9.0231 26.6787 9.0231 25.9453 9.24977 25.3987C9.47643 24.852 9.99643 24.332 11.0498 23.2787L19.2364 15.092L20.5031 16.3587C20.8898 16.7453 21.5298 16.7453 21.9164 16.3587C22.3031 15.972 22.3031 15.332 21.9164 14.9453L20.6498 13.6787L21.9164 12.412C22.5164 11.812 22.8764 11.452 23.1164 11.332C23.5698 11.1053 24.1164 11.1053 24.5698 11.332C24.8098 11.452 25.1698 11.812 25.7698 12.412C26.3698 13.012 26.7298 13.372 26.8498 13.612C27.0764 14.0653 27.0764 14.612 26.8498 15.0653C26.7298 15.3053 26.3698 15.6653 25.7698 16.2653L14.9031 27.132C13.7831 28.252 13.3031 28.7187 12.7831 28.932C12.2364 29.1587 11.4898 29.1587 10.0098 29.1587H9.0231Z" fill="#34A853"/>
</svg>
