<svg width="32" height="33" viewBox="0 0 32 33" fill="none" xmlns="http://www.w3.org/2000/svg">
<path d="M29.3473 5.89999L27.4673 5.03332L26.6006 3.15332C26.5476 3.03693 26.4622 2.93825 26.3546 2.86905C26.247 2.79985 26.1218 2.76306 25.9939 2.76306C25.866 2.76306 25.7408 2.79985 25.6333 2.86905C25.5257 2.93825 25.4403 3.03693 25.3873 3.15332L24.5339 5.03332L22.6539 5.89999C22.5375 5.95302 22.4389 6.03841 22.3697 6.14598C22.3005 6.25355 22.2637 6.37875 22.2637 6.50666C22.2637 6.63456 22.3005 6.75976 22.3697 6.86733C22.4389 6.9749 22.5375 7.06029 22.6539 7.11332L24.5339 7.96666L25.4006 9.84666C25.4536 9.96305 25.539 10.0617 25.6466 10.1309C25.7542 10.2001 25.8794 10.2369 26.0073 10.2369C26.1352 10.2369 26.2604 10.2001 26.3679 10.1309C26.4755 10.0617 26.5609 9.96305 26.6139 9.84666L27.4673 7.96666L29.3473 7.09999C29.8673 6.87332 29.8673 6.12666 29.3473 5.89999Z" fill="#34A853"/>
<path d="M12.0007 19.5C12.9211 19.5 13.6673 18.7538 13.6673 17.8334C13.6673 16.9129 12.9211 16.1667 12.0007 16.1667C11.0802 16.1667 10.334 16.9129 10.334 17.8334C10.334 18.7538 11.0802 19.5 12.0007 19.5Z" fill="#34A853"/>
<path d="M20.0007 19.5C20.9211 19.5 21.6673 18.7538 21.6673 17.8334C21.6673 16.9129 20.9211 16.1667 20.0007 16.1667C19.0802 16.1667 18.334 16.9129 18.334 17.8334C18.334 18.7538 19.0802 19.5 20.0007 19.5Z" fill="#34A853"/>
<path d="M25.9993 12.2334C24.9593 12.2334 24.0127 11.62 23.5727 10.6734L23.026 9.47335L21.826 8.92669C21.3616 8.71308 20.9681 8.37113 20.6916 7.94116C20.4152 7.5112 20.2676 7.01116 20.266 6.50002C20.266 5.62002 20.7193 4.82002 21.426 4.32669C19.7727 3.59335 17.9327 3.16669 15.9993 3.16669C8.63935 3.16669 2.66602 9.14002 2.66602 16.5C2.66602 23.86 8.63935 29.8334 15.9993 29.8334C23.3593 29.8334 29.3327 23.86 29.3327 16.5C29.3327 14.5667 28.906 12.7267 28.1727 11.0734C27.6793 11.78 26.8793 12.2334 25.9993 12.2334ZM15.9993 27.1667C10.1193 27.1667 5.33268 22.38 5.33268 16.5C5.33268 16.4334 5.34602 16.3667 5.33268 16.3134C8.79935 15.0067 11.586 12.3267 12.986 8.91335C14.2366 10.4509 15.8141 11.6902 17.604 12.5413C19.3938 13.3924 21.3508 13.8338 23.3327 13.8334C24.3327 13.8334 25.2927 13.7134 26.226 13.5134C26.506 14.46 26.666 15.46 26.666 16.5C26.666 22.38 21.8793 27.1667 15.9993 27.1667Z" fill="#34A853"/>
</svg>
